<?xml version="1.0" encoding="UTF-8"?>
<svg id="Layer_1" xmlns="http://www.w3.org/2000/svg" version="1.1" viewBox="0 0 1162 1156">
  <!-- Generator: Adobe Illustrator 29.1.0, SVG Export Plug-In . SVG Version: 2.1.0 Build 142)  -->
  <defs>
    <style>
      .st0 {
        fill: #fff;
        stroke: #000;
      }

      .st0, .st1 {
        stroke-miterlimit: 10;
      }

      .st1 {
        stroke: #fff;
      }
    </style>
  </defs>
  <rect class="st1" x="162.1" y="112.4" width="865.9" height="929.6"/>
  <path class="st0" d="M834.3,864.8h-137.3v-74.5h137.3v74.5ZM658.4,612.2v61.9h177.4v54.2h-140.4l-63,44v111.4l63.1,42.6h105.8l34.4-31.7,34.3,31.7h31.2v-251.4l-65.2-62.8h-177.7Z"/>
  <polygon class="st0" points="489.4 481.5 381.1 481.5 349.2 449.7 349.2 324.8 381.1 293 487.9 293 519.2 324.4 568.4 275.4 523.4 230.5 352.6 230.5 282.7 300.4 282.7 473.3 352.6 543.2 525 543.2 569.9 498.3 521.1 449.4 489.4 481.5"/>
  <path class="st0" d="M497.3,747.5l-22.2,20.4h-109.1v-93.7h109.1l22.2,20.6v52.7ZM300.3,612.2v317.8h65.6v-100.2h142.5l56.3-57.5v-101.9l-57.4-58.2h-207.1Z"/>
  <polygon class="st0" points="914.7 230.4 849.5 230.4 849.5 308.2 766.5 475 765.9 475 682.9 308.2 682.9 230.4 617.8 230.4 617.8 331.3 733 542.5 799.3 542.5 914.7 331.3 914.5 331.2 914.7 331.2 914.7 230.4"/>
</svg>