<svg width="198" height="197" viewBox="0 0 198 197" fill="none" xmlns="http://www.w3.org/2000/svg">
<path d="M98.577 47.9773C70.61 47.9773 48.0517 70.5212 48.0517 98.4705C48.0517 126.42 70.61 148.964 98.577 148.964C126.544 148.964 149.102 126.42 149.102 98.4705C149.102 70.5212 126.544 47.9773 98.577 47.9773ZM98.577 131.298C80.504 131.298 65.729 116.576 65.729 98.4705C65.729 80.365 80.46 65.6433 98.577 65.6433C116.694 65.6433 131.425 80.365 131.425 98.4705C131.425 116.576 116.65 131.298 98.577 131.298ZM162.954 45.9119C162.954 52.4597 157.677 57.6892 151.169 57.6892C144.617 57.6892 139.384 52.4158 139.384 45.9119C139.384 39.408 144.661 34.1345 151.169 34.1345C157.677 34.1345 162.954 39.408 162.954 45.9119ZM196.417 57.865C195.67 42.0886 192.064 28.114 180.499 16.6003C168.978 5.08667 154.995 1.48315 139.208 0.692139C122.938 -0.230713 74.1718 -0.230713 57.9017 0.692139C42.1593 1.43921 28.1758 5.04273 16.6109 16.5564C5.04593 28.0701 1.4841 42.0447 0.692578 57.8211C-0.230859 74.0808 -0.230859 122.816 0.692578 139.076C1.44012 154.852 5.04593 168.827 16.6109 180.341C28.1758 191.854 42.1153 195.458 57.9017 196.249C74.1718 197.172 122.938 197.172 139.208 196.249C154.995 195.502 168.978 191.898 180.499 180.341C192.02 168.827 195.626 154.852 196.417 139.076C197.341 122.816 197.341 74.1248 196.417 57.865ZM175.398 156.522C171.968 165.136 165.328 171.771 156.666 175.243C143.693 180.385 112.912 179.198 98.577 179.198C84.2417 179.198 53.4165 180.341 40.4883 175.243C31.8696 171.815 25.2296 165.179 21.7557 156.522C16.6109 143.558 17.7982 112.797 17.7982 98.4705C17.7982 84.1443 16.6549 53.3386 21.7557 40.4187C25.1857 31.8054 31.8256 25.1697 40.4883 21.698C53.4604 16.5564 84.2417 17.7429 98.577 17.7429C112.912 17.7429 143.737 16.6003 156.666 21.698C165.284 25.1257 171.924 31.7615 175.398 40.4187C180.543 53.3826 179.356 84.1443 179.356 98.4705C179.356 112.797 180.543 143.602 175.398 156.522Z" fill="#28D5EC"/>
</svg>
