<?xml version="1.0" encoding="UTF-8"?>
<svg id="Layer_1" data-name="Layer 1" xmlns="http://www.w3.org/2000/svg" viewBox="0 0 1162 1156">
  <defs>
    <style>
      .cls-1 {
        fill: #fff;
        stroke: #000;
      }

      .cls-1, .cls-2 {
        stroke-miterlimit: 10;
      }

      .cls-2 {
        stroke: #fff;
      }
    </style>
  </defs>
  <rect class="cls-2" x="162.05" y="112.36" width="865.91" height="929.64"/>
  <path class="cls-1" d="M834.26,864.79h-137.26v-74.51h137.26v74.51ZM658.41,612.21v61.94h177.4v54.17h-140.42l-62.98,44.02v111.44l63.12,42.65h105.85l34.44-31.73,34.28,31.73h31.21v-251.42l-65.21-62.81h-177.68Z"/>
  <polygon class="cls-1" points="489.41 481.48 381.07 481.48 349.25 449.75 349.25 324.78 381.07 292.96 487.87 292.96 519.22 324.43 568.35 275.38 523.43 230.46 352.63 230.46 282.71 300.38 282.71 473.3 352.63 543.22 524.97 543.22 569.89 498.3 521.12 449.43 489.41 481.48"/>
  <path class="cls-1" d="M497.28,747.46l-22.22,20.36h-109.1v-93.66h109.1l22.22,20.64v52.67ZM300.31,612.21v317.8h65.64v-100.23h142.55l56.3-57.48v-101.94l-57.39-58.16h-207.11Z"/>
  <polygon class="cls-1" points="914.67 230.38 849.51 230.38 849.51 308.19 766.51 475.03 765.94 475.03 682.93 308.19 682.93 230.38 617.76 230.38 617.76 331.32 733.01 542.46 799.29 542.46 914.67 331.32 914.48 331.24 914.67 331.24 914.67 230.38"/>
</svg>